<svg width="63" height="36" viewBox="0 0 63 36" fill="none" xmlns="http://www.w3.org/2000/svg">
<g clip-path="url(#clip0_13771_110)">
<path d="M25.339 9.67556C25.0347 6.56227 22.26 4.28794 19.1476 4.6005C16.0467 4.91191 13.7826 7.67402 14.0858 10.7758C14.3891 13.8774 17.1452 16.1486 20.2478 15.8539C23.3618 15.5577 25.6434 12.7888 25.339 9.67556ZM21.1246 5.90568C21.1937 5.90549 21.2452 5.91952 21.3094 5.93698L21.3233 5.94077C21.3484 6.06677 21.3233 6.12533 21.2574 6.23258C21.142 6.42032 21.0136 6.60008 20.8852 6.77985C20.6586 7.09718 20.4319 7.41459 20.2766 7.77612C19.9399 8.55999 20.0183 9.47431 20.0976 10.3982C20.167 11.2068 20.237 12.0227 20.0299 12.7649C19.7806 13.6578 19.155 14.2418 18.3716 14.6774C18.3282 14.6847 18.2803 14.681 18.2342 14.6774C18.2246 14.6767 18.215 14.676 18.2056 14.6753C18.1996 14.6749 18.1937 14.6746 18.1879 14.6743L18.1803 14.66C18.1357 14.575 18.133 14.5699 18.1653 14.4733C18.2073 14.348 18.2907 14.2198 18.3694 14.0989C18.3994 14.0528 18.4287 14.0077 18.4548 13.9643C18.7271 13.5106 18.9941 13.0205 19.0776 12.491C19.1819 11.8298 19.1264 11.1494 19.0708 10.4689C19.0003 9.60561 18.9299 8.74188 19.1861 7.91777C19.5008 6.90519 20.2377 6.37702 21.1246 5.90568Z" fill="#0B0803"/>
<path d="M38.6508 26.0997C38.2978 23.0776 35.5619 20.9136 32.5398 21.2655C29.5162 21.6174 27.3506 24.3544 27.7037 27.3781C28.0569 30.4019 30.7948 32.5663 33.8182 32.2123C36.8403 31.8583 39.0038 29.1219 38.6508 26.0997ZM32.5482 22.5324C33.2793 22.4783 33.9632 22.6563 34.553 23.0949C35.5074 23.8045 35.9942 24.9773 36.1555 26.1255C36.3262 27.3372 36.3094 29.02 35.5199 30.0347C35.0892 30.5878 34.5446 30.8126 33.8702 30.895C33.1517 30.9644 32.4327 30.7716 31.8454 30.353C30.9171 29.6833 30.4407 28.583 30.2678 27.4805C30.0708 26.2247 30.0781 24.4673 30.8917 23.4079C31.3246 22.8444 31.8654 22.6201 32.5482 22.5324Z" fill="#0B0803"/>
<path d="M7.25597 0.0561988C8.23651 -0.0723767 9.34637 0.028469 10.3003 0.269075C10.8805 0.415404 11.4594 0.614412 12.0525 0.697871C12.3936 0.745824 12.7514 0.741987 13.0955 0.748027C13.1512 1.70294 13.3354 3.99114 13.2251 4.83224C13.0494 4.86633 12.9144 4.85677 12.7377 4.83272C12.5567 4.62347 12.4716 4.15512 12.3629 3.88379C11.964 2.88875 11.1754 2.12417 10.1866 1.71859C8.94746 1.21033 7.46795 1.27567 6.24658 1.80326C4.96388 2.35738 3.91878 3.46639 3.40942 4.76538C2.62042 6.77742 2.62593 9.35828 3.51115 11.3389C4.12446 12.711 5.21551 13.9181 6.64319 14.4538C8.0061 14.9653 9.48723 14.8141 10.7927 14.2158C11.3756 13.9185 11.9146 13.4763 12.2614 12.9157C12.4576 12.5987 12.6018 11.9959 12.913 11.7912L12.9996 11.8255C13.334 12.248 13.4585 13.5692 13.5684 14.1375C12.3101 15.2465 10.7921 15.9818 9.12357 16.2014C6.93994 16.4881 4.66098 16.0475 2.89648 14.6859C1.29028 13.4464 0.314674 11.4988 0.0734898 9.50303C-0.206824 7.18379 0.305272 4.84317 1.77323 2.99721C3.1259 1.29626 5.11551 0.301795 7.25597 0.0561988Z" fill="#0B0803"/>
<path d="M48.2648 5.56499C47.6803 5.41945 46.9728 5.34088 46.3735 5.41519C44.9748 5.5526 43.7789 6.09184 42.8702 7.18857C41.8634 8.41718 41.3854 9.99501 41.5403 11.5758C41.6795 12.9235 42.2993 14.2633 43.3745 15.1158C44.5037 16.0119 46.0993 16.2645 47.5006 16.0985C48.7449 15.9515 49.8478 15.4141 50.6194 14.4097C50.9724 13.9507 51.2287 13.4318 51.4309 12.8914C51.4061 12.868 51.3815 12.8438 51.3566 12.8194C51.2374 12.7021 51.1144 12.5812 50.954 12.5324C50.9398 12.5389 50.9276 12.5441 50.9168 12.5486C50.868 12.5692 50.8484 12.5774 50.808 12.6389C50.1425 13.6186 49.3799 14.2671 48.1887 14.4897C47.2601 14.6634 46.3372 14.5036 45.5583 13.9571C44.9386 13.5222 44.4496 12.8802 44.1633 12.1816C45.5878 11.337 47.1361 10.4822 48.7748 10.1465C49.0992 10.08 49.4299 10.0427 49.7596 10.0056C50.1063 9.96646 50.4518 9.92749 50.7875 9.85489C51.0128 9.8062 51.1746 9.76039 51.2513 9.52162C51.443 8.9225 51.1405 7.94363 50.8384 7.42734C50.2864 6.48256 49.3169 5.82676 48.2648 5.56499ZM46.8157 6.51823C47.082 6.5198 47.3672 6.53866 47.6235 6.60946C48.0574 6.72911 48.4503 6.98615 48.6619 7.39252C48.8085 7.67373 48.923 8.12458 48.8079 8.43226C48.7113 8.69056 48.5023 8.86709 48.2711 9.00365C47.9827 9.17364 47.6372 9.28299 47.3045 9.38828C47.1913 9.42409 47.0797 9.45943 46.9723 9.49653C46.3908 9.69737 45.8178 9.9165 45.2637 10.1845C45.137 10.2409 44.9769 10.342 44.8063 10.4498C44.4859 10.6522 44.1287 10.8778 43.8871 10.8738C43.7579 10.7657 43.7248 10.676 43.7112 10.5135C43.6213 9.43607 44.0552 8.21045 44.7521 7.39588C45.2626 6.79964 46.0637 6.57921 46.8157 6.51823Z" fill="#0B0803"/>
<path d="M58.7405 5.46223C58.3266 5.40551 57.9075 5.3897 57.4905 5.41501C56.0713 5.53077 54.8712 6.04844 53.9426 7.1533C52.921 8.37682 52.4305 9.95791 52.5801 11.545C52.7051 12.8595 53.3191 14.2038 54.3544 15.0479C55.4689 15.9568 57.1318 16.2677 58.5346 16.1086C59.7831 15.9673 60.905 15.3806 61.6844 14.3895C62.0431 13.9295 62.3242 13.4136 62.5158 12.8624C62.4916 12.8414 62.4663 12.8183 62.4401 12.7944C62.3102 12.6759 62.1574 12.5367 61.9948 12.5237C61.3267 13.5299 60.5268 14.2379 59.3146 14.4823C58.4012 14.6666 57.5146 14.5322 56.7305 14.0117C56.0577 13.565 55.5682 12.9145 55.2194 12.1937C56.7594 11.146 58.6539 10.3435 60.4848 10.0048C60.7119 9.96276 60.9426 9.94493 61.1732 9.92711C61.3641 9.91236 61.5549 9.89761 61.7437 9.86915C61.9896 9.83207 62.2391 9.77582 62.2942 9.49482C62.4492 8.70236 62.1366 7.74912 61.6687 7.11197C60.9628 6.1507 59.9055 5.62432 58.7405 5.46223ZM57.3881 6.55681C57.8655 6.51899 58.3303 6.49546 58.7904 6.66379C59.2316 6.82509 59.5872 7.14333 59.7789 7.57459C59.9055 7.85848 59.9606 8.17635 59.8408 8.47215C59.7726 8.63912 59.6476 8.79081 59.5026 8.8969C59.1557 9.15032 58.299 9.44934 57.5538 9.70946C57.1865 9.83767 56.8463 9.95642 56.6075 10.0556C56.2245 10.2264 55.8554 10.4335 55.487 10.6402C55.2826 10.755 55.0784 10.8695 54.8722 10.9777C54.6994 9.92241 54.8076 8.84685 55.3822 7.92177C55.857 7.15814 56.5261 6.75424 57.3881 6.55681Z" fill="#0B0803"/>
<path d="M22.02 18.1228C23.1496 18.1165 26.3228 17.9758 27.1788 18.2016C27.2505 18.2998 27.2438 18.3014 27.235 18.4238C27.0371 18.7573 26.6148 18.8912 26.3219 19.1302C26.1529 19.2678 26.0002 19.4643 25.9492 19.6796C25.7602 20.4769 25.8347 21.3987 25.8341 22.2175L25.8117 25.6756C25.8058 26.5007 25.8315 27.3442 25.7348 28.1636C25.5965 29.3369 25.0786 30.4273 24.1306 31.1579C22.9489 32.0692 21.2993 32.2719 19.855 32.076C18.59 31.9048 17.3559 31.357 16.5694 30.3186C15.8558 29.3769 15.6751 28.277 15.8264 27.1257C15.8664 26.9225 15.9174 26.726 15.9903 26.5317C16.2594 25.8142 16.786 25.2244 17.4962 24.9198C18.2464 24.5983 19.1923 24.5747 19.946 24.8993C20.3128 25.0569 20.5439 25.3284 20.6787 25.7039C20.7612 25.9335 20.7883 26.1299 20.6829 26.3531C20.379 26.6404 19.6952 26.2554 19.2704 26.3747C18.8783 26.4844 18.5786 26.7591 18.3909 27.1152C18.0651 27.7334 18.0573 28.5412 18.2903 29.1915C18.4979 29.7713 18.9683 30.2393 19.5226 30.4956C20.1805 30.7997 21.1055 30.8759 21.7929 30.6201C22.3253 30.4221 22.7164 29.9987 22.9311 29.4788C23.1162 29.0307 23.2029 28.5155 23.2465 28.0349C23.3447 26.9519 23.4665 20.4107 23.228 19.7032C22.9763 18.9569 22.1182 18.9348 21.9215 18.4805C21.9216 18.3707 21.9241 18.2946 21.977 18.1985C21.9909 18.1727 22.0057 18.148 22.02 18.1228Z" fill="#0B0803"/>
<path d="M45.3574 30.2409C45.839 29.0487 46.255 27.8202 46.6988 26.6127C47.0449 25.6725 47.4724 24.6998 47.6846 23.7213C47.7298 23.5128 47.7498 23.3064 47.6915 23.0984C47.5134 22.4628 46.6935 22.5138 46.5081 22.0227C46.5339 21.915 46.5186 21.8683 46.6216 21.8021C46.8112 21.6808 50.1584 21.6682 50.5687 21.7202C50.7052 21.7375 50.8024 21.768 50.8922 21.8777C50.9016 22.1136 50.8444 22.2212 50.6322 22.3415C50.2919 22.5338 49.8585 22.632 49.6033 22.9482C49.2015 23.4461 47.6883 27.7067 47.3149 28.6752L46.0669 31.9127C45.7528 32.7258 45.4587 33.6097 44.9913 34.3493C44.7082 34.7968 44.3269 35.2301 43.8647 35.4963C43.1903 35.884 42.3352 35.9554 41.5899 35.7458C41.0106 35.5825 40.4806 35.2238 40.2033 34.678C39.9838 34.2463 39.9297 33.6717 40.0909 33.2116C40.2112 32.8686 40.489 32.5845 40.8199 32.4369C41.0342 32.3418 41.3845 32.2589 41.6062 32.3791C42.1335 32.6659 41.79 33.6129 41.9922 34.1182C42.0605 34.2878 42.1603 34.4076 42.3336 34.4774C42.6157 34.5909 43.1052 34.4354 43.3594 34.312C44.2187 33.8928 44.5795 32.5419 44.8652 31.7079C44.5044 31.7147 44.0873 31.7588 43.7318 31.6969C43.6766 31.6874 43.6073 31.6727 43.5579 31.6438C43.4403 31.5755 43.3646 31.4516 43.3037 31.3329C43.0232 30.7861 42.8331 30.1506 42.6141 29.5749L41.2501 25.9855C40.9817 25.2802 40.738 24.5448 40.4087 23.8662C40.1629 23.3605 39.8351 22.8436 39.3298 22.5642C39.0793 22.4261 38.7495 22.4277 38.5798 22.1766C38.5504 22.0054 38.5809 21.9014 38.6339 21.7375C39.5384 21.7007 43.1745 21.6062 43.8431 21.7921C43.8799 21.9198 43.8862 22.0962 43.8358 22.2218C43.7559 22.4203 43.372 22.4812 43.1955 22.5521C43.0049 22.6288 42.8399 22.7444 42.7659 22.9445C42.6845 23.1656 42.7932 23.5212 42.8567 23.7455C43.1335 24.726 43.58 25.6967 43.9476 26.651C44.4072 27.8433 44.8216 29.0807 45.3574 30.2409Z" fill="#0B0803"/>
<path d="M38.9562 0.946619C39.7592 0.904758 40.5213 1.00734 41.2225 1.42762C41.7346 1.73436 42.1684 2.19598 42.2976 2.79316C42.368 3.11733 42.346 3.46062 42.1574 3.74219C41.9526 4.04793 41.5387 4.28622 41.1752 4.33176C40.9567 4.35907 40.7004 4.32929 40.5255 4.18795C40.1195 3.8599 40.3086 3.27642 40.2314 2.82756C40.1894 2.58596 40.0639 2.38264 39.8548 2.2517C39.5386 2.05333 39.0444 1.98778 38.6857 2.08731C38.3721 2.17418 38.1463 2.39593 38.0018 2.68181C37.5422 3.58935 37.7965 4.77552 38.0806 5.69331C39.0439 5.7172 40.0113 5.69777 40.9751 5.69688C40.9778 6.10577 40.9704 6.50783 40.9394 6.91561C40.0087 6.91461 39.0759 6.90049 38.1463 6.93599C38.0869 7.89232 38.11 8.864 38.1042 9.82253C38.0953 11.2571 37.954 12.8408 38.2828 14.2368C38.3327 14.3661 38.3879 14.4879 38.4551 14.6095C38.745 15.1371 38.9236 15.0806 39.4394 15.2506C39.6153 15.3084 39.7172 15.3798 39.7939 15.5437C39.7871 15.6823 39.7655 15.7349 39.6836 15.8467C39.6379 15.8756 39.6195 15.8924 39.5596 15.9035C39.3727 15.9392 34.882 15.9197 34.6278 15.8777C34.4534 15.8483 34.3305 15.81 34.2207 15.6618C34.2932 15.238 34.7648 15.2679 35.0485 14.9938C35.3736 14.6797 35.5369 14.2586 35.6273 13.8237C35.8237 12.8767 35.7481 11.804 35.7444 10.837L35.726 6.92323L33.8893 6.9164C33.852 6.51219 33.8494 6.10414 33.8389 5.69851L35.6677 5.69756C35.5779 5.42397 35.4886 5.13977 35.4492 4.85378C35.3326 4.00864 35.5291 3.14974 36.0485 2.46495C36.7392 1.55467 37.85 1.08964 38.9562 0.946619Z" fill="#0B0803"/>
<path d="M31.3544 0.947973C32.0944 0.885681 32.8051 0.939622 33.469 1.30318C33.9994 1.59374 34.4527 2.07301 34.6155 2.66615C34.7164 3.0337 34.7274 3.49932 34.5194 3.8342C34.3724 4.07134 34.1265 4.21011 33.8566 4.26068C33.6108 4.3068 33.2857 4.30622 33.0803 4.14146C32.6916 3.82952 32.9516 3.22977 32.865 2.81662C32.813 2.56782 32.6123 2.35679 32.3943 2.23746C32.0514 2.04937 31.5571 2.02653 31.1862 2.13808C30.8782 2.23068 30.6456 2.43211 30.5043 2.72061C30.0947 3.55683 30.4054 4.83801 30.6864 5.67018C31.6086 5.72486 32.5514 5.68237 33.4768 5.68715C33.4999 6.09977 33.4789 6.50403 33.4543 6.91618C32.5151 6.91408 31.5755 6.91744 30.6363 6.92616C30.5931 8.10051 30.5757 9.27565 30.5842 10.4508C30.5809 11.6614 30.4604 13.0214 30.8155 14.1891C31.2056 15.044 32.0157 15.1881 32.2068 15.6448C32.1774 15.7283 32.1895 15.7425 32.107 15.7913C31.8108 15.9683 27.3136 15.9336 26.9115 15.838C26.8961 15.7834 26.8754 15.7204 26.8734 15.6637C26.8613 15.307 27.4235 15.1573 27.6395 14.9441C27.9403 14.6473 28.089 14.0973 28.1588 13.6877C28.3157 12.7673 28.2659 11.7528 28.265 10.8203L28.257 6.92406L26.4252 6.91628C26.3975 6.50971 26.3978 6.10533 26.3996 5.69797C26.9839 5.70438 27.5682 5.70369 28.1525 5.69597C28.0621 5.39838 27.9667 5.09958 27.9208 4.79127C27.7959 3.95274 27.9782 3.12435 28.4909 2.44272C29.1796 1.52693 30.2517 1.10265 31.3544 0.947973Z" fill="#0B0803"/>
</g>
<defs>
<clipPath id="clip0_13771_110">
<rect width="62.5159" height="35.861" fill="white"/>
</clipPath>
</defs>
</svg>
