<svg xmlns="http://www.w3.org/2000/svg" aria-hidden="true" style="position:absolute;width:0;height:0;overflow:hidden">
  <defs>
    <symbol id="logo" viewBox="0 0 56 32">
      <path d="M22.524 8.6a5.025 5.025 0 1 0-10.004.977A5.025 5.025 0 0 0 22.525 8.6zm-3.747-3.351c.061 0 .107.012.164.028l.012.003c.022.112 0 .164-.059.259a9 9 0 0 1-.331.486c-.201.282-.403.564-.541.886-.299.697-.23 1.51-.159 2.331.062.719.124 1.444-.06 2.104-.222.794-.778 1.313-1.474 1.7-.039.007-.081.003-.122 0l-.025-.002-.016-.001-.007-.013c-.04-.075-.042-.08-.013-.166.037-.111.111-.225.181-.333q.041-.062.076-.12c.242-.403.479-.839.554-1.31.093-.588.043-1.193-.006-1.797-.063-.767-.125-1.535.102-2.268.28-.9.935-1.37 1.723-1.789zM34.356 23.2a4.899 4.899 0 1 0-9.731 1.138 4.899 4.899 0 0 0 9.731-1.138m-5.424-3.171c.65-.048 1.258.11 1.782.5.848.631 1.281 1.673 1.424 2.694.152 1.077.137 2.573-.565 3.475-.383.492-.867.691-1.466.765a2.66 2.66 0 0 1-1.8-.482c-.825-.595-1.249-1.573-1.402-2.553-.175-1.116-.169-2.678.555-3.62.385-.501.866-.7 1.472-.778zM6.45.05c.872-.114 1.858-.025 2.706.189.516.13 1.03.307 1.558.381.303.043.621.039.927.045.05.849.213 2.883.115 3.63-.156.03-.276.022-.433 0-.161-.186-.237-.602-.333-.844a3.5 3.5 0 0 0-1.934-1.925c-1.101-.452-2.417-.394-3.502.075-1.14.493-2.069 1.478-2.522 2.633-.701 1.788-.696 4.083.09 5.843.545 1.22 1.515 2.293 2.784 2.769 1.211.455 2.528.32 3.688-.212.518-.264.997-.657 1.306-1.156.174-.282.303-.818.579-1l.077.03c.297.376.408 1.55.506 2.055-1.119.986-2.468 1.639-3.951 1.835-1.941.255-3.967-.137-5.535-1.347C1.148 11.949.281 10.218.067 8.444c-.249-2.062.206-4.142 1.511-5.783C2.78 1.149 4.549.265 6.452.047zM42.902 4.947c-.52-.129-1.148-.199-1.681-.133-1.243.122-2.306.601-3.114 1.576a5.33 5.33 0 0 0-1.182 3.9c.124 1.198.675 2.389 1.63 3.147 1.004.796 2.422 1.021 3.668.873 1.106-.131 2.086-.608 2.772-1.501.314-.408.542-.869.721-1.35l-.066-.064c-.106-.104-.215-.212-.358-.255l-.033.014a.17.17 0 0 0-.097.08c-.592.871-1.269 1.447-2.328 1.645-.825.154-1.646.012-2.338-.473a3.6 3.6 0 0 1-1.24-1.578c1.266-.751 2.642-1.511 4.099-1.809.288-.059.582-.092.875-.125.308-.035.615-.069.914-.134.2-.043.344-.084.412-.296.17-.533-.099-1.403-.367-1.862-.491-.84-1.352-1.423-2.288-1.655zm-1.288.847c.237.001.49.018.718.081.386.106.735.335.923.696.13.25.232.651.13.924-.086.23-.272.386-.477.508-.256.151-.563.248-.859.342q-.152.047-.295.096c-.517.179-1.026.373-1.519.612-.113.05-.255.14-.407.236-.285.18-.602.38-.817.377-.115-.096-.144-.176-.156-.32-.08-.958.306-2.047.925-2.771.454-.53 1.166-.726 1.834-.78zM52.214 4.855a5.7 5.7 0 0 0-1.111-.042c-1.261.103-2.328.563-3.154 1.545a5.31 5.31 0 0 0-1.211 3.904c.111 1.168.657 2.363 1.577 3.114.991.808 2.469 1.084 3.716.943 1.11-.126 2.107-.647 2.8-1.528.319-.409.569-.867.739-1.357l-.067-.06c-.115-.105-.251-.229-.396-.241-.594.894-1.305 1.524-2.382 1.741-.812.164-1.6.044-2.297-.418-.598-.397-1.033-.975-1.343-1.616 1.369-.931 3.053-1.645 4.68-1.946.202-.037.407-.053.612-.069.17-.013.339-.026.507-.052.219-.033.44-.083.489-.333.138-.704-.14-1.552-.556-2.118C54.19 5.468 53.25 5 52.214 4.856zm-1.202.973c.424-.034.837-.055 1.246.095.392.143.708.426.879.81.113.252.161.535.055.798a.9.9 0 0 1-.301.378c-.308.225-1.07.491-1.732.722-.327.114-.629.22-.841.308-.34.152-.669.336-.996.52q-.272.155-.547.3c-.154-.938-.057-1.894.453-2.716.422-.679 1.017-1.038 1.783-1.213zM19.573 16.109c1.004-.006 3.825-.131 4.586.07.064.087.058.089.05.198-.176.296-.551.415-.812.628a.95.95 0 0 0-.331.488c-.168.709-.102 1.528-.102 2.256l-.02 3.074c-.005.733.018 1.483-.068 2.212-.123 1.043-.583 2.012-1.426 2.662-1.05.81-2.517.99-3.801.816-1.124-.152-2.221-.639-2.921-1.562-.634-.837-.795-1.815-.66-2.838a3.3 3.3 0 0 1 .146-.528 2.49 2.49 0 0 1 1.339-1.433c.667-.286 1.508-.307 2.178-.018.326.14.531.381.651.715.073.204.097.379.004.577-.27.255-.878-.087-1.256.019a1.28 1.28 0 0 0-.782.658c-.29.549-.297 1.268-.089 1.846.185.515.603.931 1.095 1.159.585.27 1.407.338 2.018.111.473-.176.821-.552 1.012-1.014.165-.398.242-.856.28-1.283.087-.963.196-6.777-.016-7.406-.224-.663-.986-.683-1.161-1.087a.46.46 0 0 1 .049-.251l.038-.067zM40.318 26.881c.428-1.06.798-2.152 1.192-3.225.308-.836.688-1.7.876-2.57a1.1 1.1 0 0 0 .006-.554c-.158-.565-.887-.52-1.052-.956.023-.096.009-.137.101-.196.169-.108 3.144-.119 3.509-.073.121.015.208.043.288.14.008.21-.042.305-.231.412-.303.171-.688.258-.915.539-.357.443-1.702 4.23-2.034 5.091l-1.109 2.878c-.279.723-.541 1.508-.956 2.166-.252.398-.591.783-1.001 1.02-.599.345-1.36.408-2.022.222-.515-.145-.986-.464-1.233-.949-.195-.384-.243-.895-.1-1.303.107-.305.354-.558.648-.689.191-.085.502-.158.699-.051.469.255.163 1.097.343 1.546a.53.53 0 0 0 .303.319c.251.101.686-.037.912-.147.764-.373 1.085-1.573 1.339-2.315-.321.006-.691.045-1.007-.01a.5.5 0 0 1-.155-.047c-.105-.061-.172-.171-.226-.276-.249-.486-.418-1.051-.613-1.563l-1.212-3.191c-.239-.627-.455-1.281-.748-1.884-.218-.45-.51-.909-.959-1.157-.223-.123-.516-.121-.667-.345-.026-.152.001-.245.048-.39.804-.033 4.036-.117 4.63.049a.64.64 0 0 1-.007.382c-.071.177-.412.231-.569.294-.169.068-.316.171-.382.349-.072.197.024.513.081.712.246.872.643 1.734.97 2.583.409 1.06.777 2.16 1.253 3.191zM34.628.842c.714-.037 1.391.054 2.014.428.455.273.841.683.956 1.214.063.288.043.593-.125.844-.182.272-.55.484-.873.524-.194.024-.422-.002-.578-.128-.361-.292-.193-.81-.261-1.209a.73.73 0 0 0-.335-.512 1.42 1.42 0 0 0-1.039-.146c-.279.077-.479.274-.608.528-.409.807-.182 1.861.07 2.677.856.021 1.716.004 2.573.003.002.363-.004.721-.032 1.083-.827-.001-1.656-.013-2.483.018-.053.85-.032 1.714-.037 2.566-.008 1.275-.133 2.683.159 3.924q.064.17.153.331c.258.469.416.419.875.57.156.051.247.115.315.261a.4.4 0 0 1-.098.269c-.041.026-.057.041-.11.05-.166.032-4.158.014-4.384-.023-.155-.026-.264-.06-.362-.192.064-.377.484-.35.736-.594.289-.279.434-.653.514-1.04.175-.842.107-1.795.104-2.655l-.016-3.479-1.633-.006c-.033-.359-.035-.722-.045-1.083l1.626-.001a4.3 4.3 0 0 1-.194-.75 2.85 2.85 0 0 1 .533-2.123c.614-.809 1.601-1.222 2.585-1.35z"/>
      <path d="M27.871.843c.658-.055 1.29-.007 1.88.316.471.258.874.684 1.019 1.212.09.327.099.741-.085 1.038a.86.86 0 0 1-.589.379c-.218.041-.507.04-.69-.106-.346-.277-.114-.81-.191-1.178-.046-.221-.225-.409-.418-.515-.305-.167-.744-.188-1.074-.088a.97.97 0 0 0-.606.518c-.364.743-.088 1.882.162 2.622.82.049 1.658.011 2.48.015.021.367.002.726-.02 1.092q-1.252-.003-2.505.009a71 71 0 0 0-.046 3.133c-.003 1.076-.11 2.285.206 3.323.347.76 1.067.888 1.237 1.294-.026.074-.015.087-.089.13-.263.157-4.261.127-4.618.041-.014-.049-.032-.105-.034-.155-.011-.317.489-.45.681-.64.267-.264.4-.753.462-1.117.139-.818.095-1.72.094-2.549l-.007-3.463-1.628-.007c-.025-.361-.024-.721-.023-1.083q.779.009 1.558-.002c-.08-.265-.165-.53-.206-.804-.111-.745.051-1.482.507-2.088.612-.814 1.565-1.191 2.545-1.329z"/>
    </symbol>
    <symbol id="x" viewBox="0 0 36 32">
      <path d="M28.352 0h5.52l-12.06 13.555L36 32H24.891L16.19 20.813 6.234 32H.71l12.899-14.498L-.001 0H11.39l7.865 10.225L28.351 0zm-1.937 28.751h3.059L9.729 3.079H6.447z"/>
    </symbol>
    <symbol id="chevrons-right" viewBox="0 0 32 32">
      <path d="M13.728 10.28 19.495 16l-5.767 5.72 1.877 1.893L23.281 16l-7.676-7.613z"/>
      <path d="M8.939 8.387 7.062 10.28 12.829 16l-5.767 5.72 1.877 1.893L16.615 16z"/>
    </symbol>
    <symbol id="close" viewBox="0 0 32 32">
      <path d="m21.589 8.459-5.657 5.656-5.656-5.656-1.885 1.885L14.047 16l-5.656 5.656 1.885 1.885 5.656-5.656 5.657 5.656 1.885-1.885L17.818 16l5.656-5.656z"/>
    </symbol>
    <symbol id="facebook" viewBox="0 0 32 32">
      <path d="M29.333 16.405C29.333 8.996 23.364 2.99 16 2.99S2.667 8.996 2.667 16.405c0 6.696 4.876 12.245 11.25 13.252v-9.374h-3.385v-3.878h3.385V13.45c0-3.362 1.991-5.219 5.036-5.219 1.459 0 2.985.262 2.985.262v3.301h-1.681c-1.656 0-2.173 1.034-2.173 2.095v2.516h3.698l-.591 3.878h-3.107v9.374c6.374-1.006 11.25-6.556 11.25-13.252z"/>
    </symbol>
    <symbol id="favicon" viewBox="0 0 32 32">
      <path d="M27.942 14.832C27.296 8.224 21.407 3.397 14.801 4.06 8.22 4.721 3.414 10.583 4.058 17.167s6.493 11.403 13.078 10.778c6.609-.629 11.452-6.505 10.806-13.113m-8.945-8.001c.146 0 .256.029.392.066l.029.008c.053.267 0 .392-.14.619-.245.398-.517.78-.79 1.162-.481.674-.962 1.347-1.292 2.114-.715 1.664-.548 3.604-.38 5.565.147 1.716.296 3.448-.144 5.023-.529 1.895-1.857 3.135-3.52 4.059a1.2 1.2 0 0 1-.292 0l-.061-.005-.037-.002-.016-.03c-.095-.18-.101-.191-.032-.396.089-.266.266-.538.433-.795q.097-.148.181-.286c.578-.963 1.145-2.003 1.322-3.127.222-1.403.104-2.848-.014-4.292-.15-1.832-.299-3.666.245-5.415.668-2.149 2.232-3.27 4.114-4.271z"/>
    </symbol>
    <symbol id="instagram" viewBox="0 0 32 32">
      <path d="M15.998 6.161c3.206 0 3.585.014 4.846.071 1.172.052 1.804.248 2.226.412.558.216.961.478 1.378.895.422.422.679.82.9 1.378.164.422.361 1.059.412 2.226.056 1.266.071 1.645.071 4.847s-.014 3.585-.071 4.847c-.052 1.172-.248 1.804-.412 2.227a3.7 3.7 0 0 1-.895 1.377c-.422.422-.82.679-1.378.9-.422.164-1.06.361-2.226.412-1.266.056-1.645.071-4.847.071s-3.585-.014-4.847-.071c-1.172-.052-1.804-.248-2.226-.412a3.7 3.7 0 0 1-1.378-.895 3.8 3.8 0 0 1-.9-1.378c-.164-.422-.361-1.06-.412-2.226-.056-1.266-.071-1.645-.071-4.847s.014-3.585.071-4.847c.052-1.172.248-1.804.412-2.226.216-.558.478-.961.895-1.378.422-.422.82-.679 1.378-.9.422-.164 1.059-.361 2.226-.412 1.261-.056 1.641-.071 4.847-.071zm0-2.16c-3.258 0-3.665.014-4.945.071-1.275.056-2.151.262-2.91.558a5.85 5.85 0 0 0-2.127 1.387A5.9 5.9 0 0 0 4.629 8.14c-.295.764-.502 1.636-.558 2.91C4.015 12.335 4 12.742 4 15.999s.014 3.665.071 4.945c.056 1.275.262 2.151.558 2.91a5.9 5.9 0 0 0 1.387 2.127 5.9 5.9 0 0 0 2.123 1.383c.764.295 1.636.502 2.91.558 1.279.056 1.687.071 4.945.071s3.666-.014 4.945-.071c1.275-.056 2.151-.262 2.91-.558.787-.305 1.458-.717 2.123-1.383s1.078-1.336 1.383-2.123c.295-.764.502-1.635.558-2.91.056-1.279.071-1.687.071-4.945s-.014-3.665-.071-4.945c-.056-1.275-.262-2.151-.558-2.91a5.6 5.6 0 0 0-1.373-2.133 5.9 5.9 0 0 0-2.123-1.383c-.764-.295-1.635-.502-2.91-.558-1.284-.061-1.692-.075-4.949-.075L15.999 4z"/>
      <path d="M15.998 9.836a6.164 6.164 0 1 0 6.163 6.163 6.164 6.164 0 0 0-6.163-6.163m0 10.161a3.998 3.998 0 1 1 0-7.996 3.998 3.998 0 0 1 0 7.996M23.843 9.592a1.439 1.439 0 1 1-2.877 0 1.439 1.439 0 0 1 2.877 0"/>
    </symbol>
    <symbol id="mail" viewBox="0 0 32 32">
      <path d="M26.667 5.333H5.334A2.67 2.67 0 0 0 2.667 8v16a2.67 2.67 0 0 0 2.667 2.667h21.333A2.67 2.67 0 0 0 29.334 24V8a2.67 2.67 0 0 0-2.667-2.667m0 2.667v.681L16 16.978 5.333 8.682v-.683h21.333zM5.333 24V12.059l9.848 7.66a1.33 1.33 0 0 0 1.638 0l9.848-7.66L26.67 24H5.334z"/>
    </symbol>
    <symbol id="map" viewBox="0 0 32 32">
      <path d="M16 18.667c2.941 0 5.333-2.392 5.333-5.333S18.941 8.001 16 8.001s-5.333 2.392-5.333 5.333 2.392 5.333 5.333 5.333m0-8c1.471 0 2.667 1.196 2.667 2.667S17.471 16.001 16 16.001s-2.667-1.196-2.667-2.667 1.196-2.667 2.667-2.667"/>
      <path d="M15.227 29.085a1.33 1.33 0 0 0 1.546 0c.405-.287 9.932-7.165 9.893-15.752 0-5.881-4.785-10.667-10.667-10.667S5.332 7.451 5.332 13.326c-.039 8.593 9.488 15.472 9.893 15.759zM16 5.333c4.412 0 8 3.588 8 8.007.028 5.917-5.851 11.231-8 12.973-2.148-1.744-8.028-7.059-8-12.98 0-4.412 3.588-8 8-8"/>
    </symbol>
    <symbol id="map-pin" viewBox="0 0 32 32">
      <path d="M16 22.667 17.333 20v-6.856c2.295-.596 4-2.667 4-5.144 0-2.941-2.392-5.333-5.333-5.333S10.667 5.059 10.667 8c0 2.477 1.705 4.548 4 5.144V20zM13.333 8c0-1.471 1.196-2.667 2.667-2.667S18.667 6.529 18.667 8 17.471 10.667 16 10.667 13.333 9.471 13.333 8"/>
      <path d="m21.689 14.084-.711 2.571c3.455.955 5.688 2.791 5.688 4.679 0 2.523-4.38 5.333-10.667 5.333S5.332 23.856 5.332 21.334c0-1.888 2.233-3.724 5.689-4.68l-.711-2.571c-4.716 1.304-7.645 4.081-7.645 7.251 0 4.485 5.857 8 13.333 8s13.333-3.515 13.333-8c0-3.169-2.929-5.947-7.644-7.249z"/>
    </symbol>
    <symbol id="menu" viewBox="0 0 32 32">
      <path d="M5.333 8h21.333v2.667H5.333zm0 6.667h21.333v2.667H5.333zm0 6.666h21.333V24H5.333z"/>
    </symbol>
    <symbol id="phone" viewBox="0 0 32 32">
      <path d="M23.61 16.391a1.34 1.34 0 0 0-.942-.391 1.33 1.33 0 0 0-.942.391l-2.125 2.125c-.985-.293-2.824-.96-3.989-2.125s-1.832-3.004-2.125-3.989l2.125-2.125a1.34 1.34 0 0 0 .391-.942 1.33 1.33 0 0 0-.391-.942L10.279 3.06a1.34 1.34 0 0 0-.942-.391 1.33 1.33 0 0 0-.942.391L4.779 6.676a2.66 2.66 0 0 0-.781 1.913c.031 1.899.533 8.493 5.731 13.691s11.792 5.699 13.692 5.731h.037c.704 0 1.369-.277 1.873-.781l3.616-3.616a1.34 1.34 0 0 0 .391-.942 1.33 1.33 0 0 0-.391-.942l-5.333-5.335zm-.17 8.949c-1.664-.028-7.357-.475-11.831-4.949C7.121 15.903 6.686 10.19 6.66 8.559l2.673-2.673 3.448 3.448-1.724 1.724a1.33 1.33 0 0 0-.362 1.216c.032.153.815 3.789 3.028 6.003s5.849 2.996 6.003 3.028a1.32 1.32 0 0 0 1.216-.361l1.725-1.724 3.448 3.448-2.675 2.673z"/>
    </symbol>
    <symbol id="star-filled" viewBox="0 0 32 32">
      <path d="M14.761 4.816c.458-1.089 2.019-1.089 2.478 0l2.705 6.425c.193.459.63.772 1.132.812l7.021.556c1.19.094 1.672 1.561.766 2.328l-5.349 4.527a1.32 1.32 0 0 0-.432 1.314l1.634 6.769c.277 1.147-.986 2.053-2.004 1.439l-6.011-3.627a1.36 1.36 0 0 0-1.399 0l-6.011 3.627c-1.018.615-2.281-.292-2.004-1.439l1.634-6.769a1.32 1.32 0 0 0-.432-1.314l-5.35-4.527c-.906-.767-.424-2.234.766-2.328l7.021-.556c.502-.04.938-.353 1.132-.812l2.705-6.425z"/>
    </symbol>
    <symbol id="star-outline" viewBox="0 0 32 32">
      <path stroke-width="1.333" d="M15.375 5.076c.229-.545 1.021-.545 1.25 0l2.704 6.424a2.01 2.01 0 0 0 1.694 1.219l7.021.556c.61.048.828.78.388 1.154l-5.35 4.527a1.99 1.99 0 0 0-.65 1.98l1.635 6.768c.133.549-.482 1.031-1.013.711h-.001l-6.009-3.626a2.03 2.03 0 0 0-2.089 0l-6.01 3.626c-.531.32-1.146-.162-1.013-.711l1.635-6.768a1.99 1.99 0 0 0-.65-1.98l-5.35-4.527a.656.656 0 0 1 .388-1.154l7.021-.556A2.01 2.01 0 0 0 12.67 11.5l2.704-6.424z"/>
    </symbol>
	<symbol id="icon-X" viewBox="0 0 32 32">
<path d="M22.901 5.657h3.68l-8.040 9.037 9.459 12.297h-7.406l-5.801-7.458-6.637 7.458h-3.682l8.6-9.666-9.074-11.668h7.594l5.243 6.817 6.064-6.817zM21.61 24.824h2.039l-13.163-17.115h-2.188l13.312 17.115z"></path>
</symbol>

<symbol id="icon-logo" viewBox="0 0 56 32">
<path d="M22.524 8.601c-0.27-2.767-2.737-4.789-5.503-4.511-2.756 0.277-4.769 2.732-4.499 5.489s2.719 4.776 5.477 4.514c2.768-0.263 4.796-2.725 4.526-5.492zM18.777 5.25c0.061-0 0.107 0.012 0.164 0.028l0.012 0.003c0.022 0.112 0 0.164-0.059 0.259-0.103 0.167-0.217 0.327-0.331 0.486-0.201 0.282-0.403 0.564-0.541 0.886-0.299 0.697-0.23 1.509-0.159 2.331 0.062 0.719 0.124 1.444-0.060 2.104-0.222 0.794-0.778 1.313-1.474 1.7-0.039 0.007-0.081 0.003-0.122 0-0.009-0.001-0.017-0.001-0.025-0.002-0.005-0-0.011-0.001-0.016-0.001l-0.007-0.013c-0.040-0.076-0.042-0.080-0.013-0.166 0.037-0.111 0.111-0.225 0.181-0.333 0.027-0.041 0.053-0.081 0.076-0.12 0.242-0.403 0.479-0.839 0.554-1.31 0.093-0.588 0.043-1.193-0.006-1.797-0.063-0.767-0.125-1.535 0.102-2.268 0.28-0.9 0.935-1.37 1.723-1.789z"></path>
<path d="M34.356 23.2c-0.314-2.686-2.746-4.61-5.432-4.297-2.688 0.313-4.613 2.746-4.299 5.433s2.748 4.612 5.435 4.297c2.686-0.315 4.609-2.747 4.296-5.433zM28.932 20.029c0.65-0.048 1.258 0.11 1.782 0.5 0.848 0.631 1.281 1.673 1.424 2.694 0.152 1.077 0.137 2.573-0.565 3.475-0.383 0.492-0.867 0.691-1.466 0.765-0.639 0.062-1.278-0.11-1.8-0.482-0.825-0.595-1.249-1.573-1.402-2.553-0.175-1.116-0.169-2.678 0.555-3.62 0.385-0.501 0.866-0.7 1.472-0.778z"></path>
<path d="M6.45 0.050c0.872-0.114 1.858-0.025 2.706 0.189 0.516 0.13 1.030 0.307 1.558 0.381 0.303 0.043 0.621 0.039 0.927 0.045 0.050 0.849 0.213 2.883 0.115 3.63-0.156 0.030-0.276 0.022-0.433 0-0.161-0.186-0.237-0.602-0.333-0.844-0.355-0.884-1.056-1.564-1.934-1.925-1.101-0.452-2.417-0.394-3.502 0.075-1.14 0.493-2.069 1.478-2.522 2.633-0.701 1.788-0.696 4.083 0.090 5.843 0.545 1.22 1.515 2.293 2.784 2.769 1.211 0.455 2.528 0.32 3.688-0.212 0.518-0.264 0.997-0.657 1.306-1.156 0.174-0.282 0.303-0.818 0.579-1l0.077 0.030c0.297 0.376 0.408 1.55 0.506 2.055-1.119 0.986-2.468 1.639-3.951 1.835-1.941 0.255-3.967-0.137-5.535-1.347-1.428-1.102-2.295-2.833-2.509-4.607-0.249-2.062 0.206-4.142 1.511-5.783 1.202-1.512 2.971-2.396 4.874-2.614z"></path>
<path d="M42.902 4.947c-0.52-0.129-1.148-0.199-1.681-0.133-1.243 0.122-2.306 0.601-3.114 1.576-0.895 1.092-1.32 2.495-1.182 3.9 0.124 1.198 0.675 2.389 1.63 3.147 1.004 0.797 2.422 1.021 3.668 0.873 1.106-0.131 2.086-0.608 2.772-1.501 0.314-0.408 0.542-0.869 0.721-1.35-0.022-0.021-0.044-0.042-0.066-0.064-0.106-0.104-0.215-0.212-0.358-0.255-0.013 0.006-0.023 0.010-0.033 0.014-0.043 0.018-0.061 0.026-0.097 0.080-0.592 0.871-1.269 1.447-2.328 1.645-0.825 0.154-1.646 0.012-2.338-0.473-0.551-0.387-0.986-0.957-1.24-1.578 1.266-0.751 2.642-1.511 4.099-1.809 0.288-0.059 0.582-0.092 0.875-0.125 0.308-0.035 0.615-0.069 0.914-0.134 0.2-0.043 0.344-0.084 0.412-0.296 0.17-0.533-0.099-1.403-0.367-1.862-0.491-0.84-1.352-1.423-2.288-1.655zM41.614 5.794c0.237 0.001 0.49 0.018 0.718 0.081 0.386 0.106 0.735 0.335 0.923 0.696 0.13 0.25 0.232 0.651 0.13 0.924-0.086 0.23-0.272 0.386-0.477 0.508-0.256 0.151-0.563 0.248-0.859 0.342-0.101 0.032-0.2 0.063-0.295 0.096-0.517 0.179-1.026 0.373-1.519 0.612-0.113 0.050-0.255 0.14-0.407 0.236-0.285 0.18-0.602 0.38-0.817 0.377-0.115-0.096-0.144-0.176-0.156-0.32-0.080-0.958 0.306-2.047 0.925-2.771 0.454-0.53 1.166-0.726 1.834-0.78z"></path>
<path d="M52.214 4.855c-0.368-0.050-0.74-0.064-1.111-0.042-1.261 0.103-2.328 0.563-3.154 1.545-0.908 1.088-1.344 2.493-1.211 3.904 0.111 1.168 0.657 2.363 1.577 3.114 0.991 0.808 2.469 1.084 3.716 0.943 1.11-0.126 2.107-0.647 2.8-1.528 0.319-0.409 0.569-0.867 0.739-1.357-0.022-0.019-0.044-0.039-0.067-0.060-0.115-0.105-0.251-0.229-0.396-0.241-0.594 0.894-1.305 1.524-2.382 1.741-0.812 0.164-1.6 0.044-2.297-0.418-0.598-0.397-1.033-0.975-1.343-1.616 1.369-0.931 3.053-1.645 4.68-1.946 0.202-0.037 0.407-0.053 0.612-0.069 0.17-0.013 0.339-0.026 0.507-0.052 0.219-0.033 0.44-0.083 0.489-0.333 0.138-0.704-0.14-1.552-0.556-2.118-0.627-0.854-1.567-1.322-2.603-1.466zM51.012 5.828c0.424-0.034 0.837-0.055 1.246 0.095 0.392 0.143 0.708 0.426 0.879 0.81 0.113 0.252 0.161 0.535 0.055 0.798-0.061 0.148-0.172 0.283-0.301 0.378-0.308 0.225-1.070 0.491-1.732 0.722-0.327 0.114-0.629 0.22-0.841 0.308-0.34 0.152-0.669 0.336-0.996 0.52-0.182 0.102-0.363 0.204-0.547 0.3-0.154-0.938-0.057-1.894 0.453-2.716 0.422-0.679 1.017-1.038 1.783-1.213z"></path>
<path d="M19.573 16.109c1.004-0.006 3.825-0.131 4.586 0.070 0.064 0.087 0.058 0.089 0.050 0.198-0.176 0.296-0.551 0.415-0.812 0.628-0.15 0.122-0.286 0.297-0.331 0.488-0.168 0.709-0.102 1.528-0.102 2.256l-0.020 3.074c-0.005 0.733 0.018 1.483-0.068 2.212-0.123 1.043-0.583 2.012-1.426 2.662-1.050 0.81-2.517 0.99-3.801 0.816-1.124-0.152-2.221-0.639-2.921-1.562-0.634-0.837-0.795-1.815-0.66-2.838 0.036-0.181 0.081-0.355 0.146-0.528 0.239-0.638 0.707-1.162 1.339-1.433 0.667-0.286 1.508-0.307 2.178-0.018 0.326 0.14 0.531 0.381 0.651 0.715 0.073 0.204 0.097 0.379 0.004 0.577-0.27 0.255-0.878-0.087-1.256 0.019-0.349 0.098-0.615 0.342-0.782 0.658-0.29 0.549-0.297 1.268-0.089 1.846 0.185 0.515 0.603 0.931 1.095 1.159 0.585 0.27 1.407 0.338 2.018 0.111 0.473-0.176 0.821-0.552 1.012-1.015 0.165-0.398 0.242-0.856 0.28-1.283 0.087-0.963 0.196-6.777-0.016-7.406-0.224-0.663-0.986-0.683-1.161-1.087 0-0.098 0.002-0.165 0.049-0.251 0.012-0.023 0.026-0.045 0.038-0.067z"></path>
<path d="M40.318 26.881c0.428-1.060 0.798-2.152 1.192-3.225 0.308-0.836 0.688-1.7 0.876-2.57 0.040-0.185 0.058-0.369 0.006-0.554-0.158-0.565-0.887-0.52-1.052-0.956 0.023-0.096 0.009-0.137 0.101-0.196 0.169-0.108 3.144-0.119 3.509-0.073 0.121 0.015 0.208 0.043 0.288 0.14 0.008 0.21-0.042 0.305-0.231 0.412-0.303 0.171-0.688 0.258-0.915 0.539-0.357 0.443-1.702 4.23-2.034 5.091l-1.109 2.878c-0.279 0.723-0.541 1.508-0.956 2.166-0.252 0.398-0.591 0.783-1.001 1.020-0.599 0.345-1.36 0.408-2.022 0.222-0.515-0.145-0.986-0.464-1.233-0.949-0.195-0.384-0.243-0.895-0.1-1.303 0.107-0.305 0.354-0.557 0.648-0.689 0.191-0.085 0.502-0.158 0.699-0.051 0.469 0.255 0.163 1.097 0.343 1.546 0.061 0.151 0.149 0.257 0.303 0.319 0.251 0.101 0.686-0.037 0.912-0.147 0.764-0.373 1.085-1.573 1.339-2.315-0.321 0.006-0.691 0.045-1.007-0.010-0.049-0.008-0.111-0.021-0.155-0.047-0.105-0.061-0.172-0.171-0.226-0.276-0.249-0.486-0.418-1.051-0.613-1.563l-1.212-3.191c-0.239-0.627-0.455-1.281-0.748-1.884-0.218-0.45-0.51-0.909-0.959-1.157-0.223-0.123-0.516-0.121-0.667-0.345-0.026-0.152 0.001-0.245 0.048-0.39 0.804-0.033 4.036-0.117 4.63 0.049 0.033 0.113 0.038 0.27-0.007 0.382-0.071 0.176-0.412 0.231-0.569 0.294-0.169 0.068-0.316 0.171-0.382 0.349-0.072 0.197 0.024 0.513 0.081 0.712 0.246 0.872 0.643 1.734 0.97 2.583 0.409 1.060 0.777 2.16 1.253 3.191z"></path>
<path d="M34.628 0.841c0.714-0.037 1.391 0.054 2.014 0.428 0.455 0.273 0.841 0.683 0.956 1.214 0.063 0.288 0.043 0.593-0.125 0.844-0.182 0.272-0.55 0.484-0.873 0.524-0.194 0.024-0.422-0.002-0.578-0.128-0.361-0.292-0.193-0.81-0.261-1.209-0.037-0.215-0.149-0.396-0.335-0.512-0.281-0.176-0.72-0.235-1.039-0.146-0.279 0.077-0.479 0.274-0.608 0.528-0.409 0.807-0.182 1.861 0.070 2.677 0.856 0.021 1.716 0.004 2.573 0.003 0.002 0.363-0.004 0.721-0.032 1.083-0.827-0.001-1.656-0.013-2.483 0.018-0.053 0.85-0.032 1.714-0.037 2.566-0.008 1.275-0.133 2.683 0.159 3.924 0.044 0.115 0.093 0.223 0.153 0.331 0.258 0.469 0.416 0.419 0.875 0.57 0.156 0.051 0.247 0.115 0.315 0.261-0.006 0.123-0.025 0.17-0.098 0.269-0.041 0.026-0.057 0.041-0.11 0.050-0.166 0.032-4.158 0.014-4.384-0.023-0.155-0.026-0.264-0.060-0.362-0.192 0.064-0.377 0.484-0.35 0.736-0.594 0.289-0.279 0.434-0.653 0.514-1.040 0.175-0.842 0.107-1.795 0.104-2.655l-0.016-3.479-1.633-0.006c-0.033-0.359-0.035-0.722-0.045-1.083l1.626-0.001c-0.080-0.243-0.159-0.496-0.194-0.75-0.104-0.751 0.071-1.515 0.533-2.123 0.614-0.809 1.601-1.222 2.585-1.35z"></path>
<path d="M27.871 0.843c0.658-0.055 1.29-0.007 1.88 0.316 0.471 0.258 0.874 0.684 1.019 1.212 0.090 0.327 0.099 0.741-0.085 1.038-0.131 0.211-0.349 0.334-0.589 0.379-0.218 0.041-0.507 0.040-0.69-0.106-0.346-0.277-0.114-0.81-0.191-1.178-0.046-0.221-0.225-0.409-0.418-0.515-0.305-0.167-0.744-0.188-1.074-0.088-0.274 0.082-0.481 0.261-0.606 0.518-0.364 0.743-0.088 1.882 0.162 2.622 0.82 0.049 1.658 0.011 2.48 0.015 0.021 0.367 0.002 0.726-0.020 1.092-0.835-0.002-1.67 0.001-2.505 0.009-0.038 1.044-0.054 2.088-0.046 3.133-0.003 1.076-0.11 2.285 0.206 3.323 0.347 0.76 1.067 0.888 1.237 1.294-0.026 0.074-0.015 0.087-0.089 0.13-0.263 0.157-4.261 0.127-4.618 0.041-0.014-0.049-0.032-0.105-0.034-0.155-0.011-0.317 0.489-0.45 0.681-0.64 0.267-0.264 0.4-0.753 0.462-1.117 0.139-0.818 0.095-1.72 0.094-2.549l-0.007-3.463-1.628-0.007c-0.025-0.361-0.024-0.721-0.023-1.083 0.519 0.006 1.039 0.005 1.558-0.002-0.080-0.265-0.165-0.53-0.206-0.804-0.111-0.745 0.051-1.482 0.507-2.088 0.612-0.814 1.565-1.191 2.545-1.329z"></path>
</symbol>
  </defs>
</svg>
